<svg width="600" height="400" viewBox="0 0 600 400" fill="none" xmlns="http://www.w3.org/2000/svg">
  <rect width="600" height="400" fill="#F7F7F7"/>
  <rect x="76" y="76" width="448" height="248" rx="12" fill="white" stroke="#E5E7EB" stroke-width="2"/>
  <path d="M212 216C212 223.18 206.18 229 199 229C191.82 229 186 223.18 186 216C186 208.82 191.82 203 199 203C206.18 203 212 208.82 212 216Z" fill="#60A5FA"/>
  <path d="M414 216C414 223.18 408.18 229 401 229C393.82 229 388 223.18 388 216C388 208.82 393.82 203 401 203C408.18 203 414 208.82 414 216Z" fill="#10B981"/>
  <path d="M313 216C313 223.18 307.18 229 300 229C292.82 229 287 223.18 287 216C287 208.82 292.82 203 300 203C307.18 203 313 208.82 313 216Z" fill="#F59E0B"/>
  <path d="M148 164H172L160 188H148V164Z" fill="#60A5FA"/>
  <path d="M180 164H204L192 188H180V164Z" fill="#10B981"/>
  <path d="M212 164H236L224 188H212V164Z" fill="#F59E0B"/>
  <path d="M244 164H268L256 188H244V164Z" fill="#EF4444"/>
  <rect x="292" y="164" width="16" height="24" rx="4" fill="#60A5FA"/>
  <rect x="324" y="164" width="16" height="24" rx="4" fill="#10B981"/>
  <rect x="356" y="164" width="16" height="24" rx="4" fill="#F59E0B"/>
  <rect x="388" y="164" width="16" height="24" rx="4" fill="#EF4444"/>
  <rect x="420" y="164" width="16" height="24" rx="4" fill="#A78BFA"/>
  <rect x="452" y="164" width="16" height="24" rx="4" fill="#F472B6"/>
  <path d="M120 280H144L132 304H120V280Z" fill="#60A5FA"/>
  <path d="M152 280H176L164 304H152V280Z" fill="#10B981"/>
  <path d="M184 280H208L196 304H184V280Z" fill="#F59E0B"/>
  <path d="M216 280H240L228 304H216V280Z" fill="#EF4444"/>
  <rect x="264" y="280" width="16" height="24" rx="4" fill="#60A5FA"/>
  <rect x="296" y="280" width="16" height="24" rx="4" fill="#10B981"/>
  <rect x="328" y="280" width="16" height="24" rx="4" fill="#F59E0B"/>
  <rect x="360" y="280" width="16" height="24" rx="4" fill="#EF4444"/>
  <rect x="392" y="280" width="16" height="24" rx="4" fill="#A78BFA"/>
  <rect x="424" y="280" width="16" height="24" rx="4" fill="#F472B6"/>
  <path d="M476 164C476 170.63 470.63 176 464 176C457.37 176 452 170.63 452 164C452 157.37 457.37 152 464 152C470.63 152 476 157.37 476 164Z" stroke="#6B7280" stroke-width="2"/>
  <path d="M476 280C476 286.63 470.63 292 464 292C457.37 292 452 286.63 452 280C452 273.37 457.37 268 464 268C470.63 268 476 273.37 476 280Z" stroke="#6B7280" stroke-width="2"/>
  <path d="M124 164C124 170.63 118.63 176 112 176C105.37 176 100 170.63 100 164C100 157.37 105.37 152 112 152C118.63 152 124 157.37 124 164Z" stroke="#6B7280" stroke-width="2"/>
  <path d="M124 280C124 286.63 118.63 292 112 292C105.37 292 100 286.63 100 280C100 273.37 105.37 268 112 268C118.63 268 124 273.37 124 280Z" stroke="#6B7280" stroke-width="2"/>
</svg>