<svg width="600" height="600" viewBox="0 0 600 600" fill="none" xmlns="http://www.w3.org/2000/svg">
  <rect width="600" height="600" rx="60" fill="#F4F7FF"/>
  <rect x="70" y="110" width="460" height="390" rx="20" fill="white" stroke="#D0D5DD" stroke-width="2"/>
  <rect x="110" y="150" width="380" height="280" rx="10" fill="#F4F7FF"/>
  <path d="M110 170H490M110 200H490M110 230H490M110 260H490" stroke="#D0D5DD" stroke-width="2" stroke-linecap="round"/>
  <path d="M230 290L230 430" stroke="#D0D5DD" stroke-width="2" stroke-linecap="round"/>
  <path d="M330 290L330 430" stroke="#D0D5DD" stroke-width="2" stroke-linecap="round"/>
  <path d="M430 290L430 430" stroke="#D0D5DD" stroke-width="2" stroke-linecap="round"/>
  <rect x="110" y="290" width="100" height="140" rx="5" fill="#6469FF"/>
  <rect x="230" y="310" width="80" height="100" rx="5" fill="#FF8A65"/>
  <rect x="330" y="370" width="80" height="40" rx="5" fill="#4FD1C5"/>
  <rect x="430" y="340" width="60" height="70" rx="5" fill="#FFB347"/>
  <circle cx="105" cy="150" r="12" fill="#FF8A65"/>
  <circle cx="135" cy="150" r="12" fill="#4FD1C5"/>
  <circle cx="165" cy="150" r="12" fill="#FFB347"/>
  <path d="M250 460H350" stroke="#D0D5DD" stroke-width="2" stroke-linecap="round"/>
  <path d="M290 500V520" stroke="#D0D5DD" stroke-width="2" stroke-linecap="round"/>
  <path d="M310 500V520" stroke="#D0D5DD" stroke-width="2" stroke-linecap="round"/>
  <rect x="180" y="460" width="30" height="30" rx="5" fill="#6469FF"/>
  <rect x="220" y="460" width="30" height="30" rx="5" fill="#FF8A65"/>
  <rect x="260" y="460" width="30" height="30" rx="5" fill="#4FD1C5"/>
  <rect x="300" y="460" width="30" height="30" rx="5" fill="#FFB347"/>
  <rect x="340" y="460" width="30" height="30" rx="5" fill="#D0D5DD"/>
  <rect x="380" y="460" width="30" height="30" rx="5" fill="#D0D5DD"/>
  <rect x="420" y="460" width="30" height="30" rx="5" fill="#D0D5DD"/>
</svg>